<svg width="32" height="32" viewBox="0 0 32 32" fill="none" xmlns="http://www.w3.org/2000/svg">
<g clip-path="url(#clip0_1026_9)">
<path d="M13.335 4.56113C14.4865 2.54493 17.3935 2.54493 18.5451 4.56112L28.2522 21.557C29.3944 23.557 27.9503 26.0449 25.6471 26.0449H6.2329C3.92972 26.0449 2.48559 23.557 3.62786 21.5571L13.335 4.56113Z" fill="url(#paint0_linear_1026_9)"/>
<g filter="url(#filter0_b_1026_9)">
<mask id="path-2-inside-1_1026_9" fill="white">
<path d="M32.2021 17.1111C31.6961 15.4585 30.7621 13.9691 29.495 12.7938C28.2279 11.6186 26.6726 10.7992 24.9867 10.4187C23.3008 10.0382 21.5443 10.1102 19.8952 10.6274C18.2461 11.1445 16.7631 12.0885 15.5964 13.3635C14.4297 14.6386 13.6208 16.1994 13.2517 17.8878C12.8827 19.5762 12.9665 21.3322 13.4948 22.9777C14.0231 24.6233 14.977 26.0999 16.2599 27.258C17.5428 28.416 19.109 29.2144 20.7999 29.572L22.8286 19.9812L32.2021 17.1111Z"/>
</mask>
<path d="M32.2021 17.1111C31.6961 15.4585 30.7621 13.9691 29.495 12.7938C28.2279 11.6186 26.6726 10.7992 24.9867 10.4187C23.3008 10.0382 21.5443 10.1102 19.8952 10.6274C18.2461 11.1445 16.7631 12.0885 15.5964 13.3635C14.4297 14.6386 13.6208 16.1994 13.2517 17.8878C12.8827 19.5762 12.9665 21.3322 13.4948 22.9777C14.0231 24.6233 14.977 26.0999 16.2599 27.258C17.5428 28.416 19.109 29.2144 20.7999 29.572L22.8286 19.9812L32.2021 17.1111Z" fill="#D9D9D9" fill-opacity="0.05"/>
<path d="M32.2021 17.1111C31.6961 15.4585 30.7621 13.9691 29.495 12.7938C28.2279 11.6186 26.6726 10.7992 24.9867 10.4187C23.3008 10.0382 21.5443 10.1102 19.8952 10.6274C18.2461 11.1445 16.7631 12.0885 15.5964 13.3635C14.4297 14.6386 13.6208 16.1994 13.2517 17.8878C12.8827 19.5762 12.9665 21.3322 13.4948 22.9777C14.0231 24.6233 14.977 26.0999 16.2599 27.258C17.5428 28.416 19.109 29.2144 20.7999 29.572L22.8286 19.9812L32.2021 17.1111Z" stroke="#6482E7" stroke-width="0.2" mask="url(#path-2-inside-1_1026_9)"/>
</g>
</g>
<defs>
<filter id="filter0_b_1026_9" x="9.02563" y="6.17822" width="27.1765" height="27.3938" filterUnits="userSpaceOnUse" color-interpolation-filters="sRGB">
<feFlood flood-opacity="0" result="BackgroundImageFix"/>
<feGaussianBlur in="BackgroundImageFix" stdDeviation="2"/>
<feComposite in2="SourceAlpha" operator="in" result="effect1_backgroundBlur_1026_9"/>
<feBlend mode="normal" in="SourceGraphic" in2="effect1_backgroundBlur_1026_9" result="shape"/>
</filter>
<linearGradient id="paint0_linear_1026_9" x1="10.5616" y1="4.15463" x2="17.4507" y2="30.5897" gradientUnits="userSpaceOnUse">
<stop stop-color="#41D1FF"/>
<stop offset="1" stop-color="#325EF1"/>
</linearGradient>
<clipPath id="clip0_1026_9">
<rect width="31.88" height="32" fill="white"/>
</clipPath>
</defs>
</svg>
